:SAMPLES-PER-SECOND 30
:FULLY-SPECIFIED
:DEGREES
278
root  65.7673 37.9528 4.24717 -89.1209 86.0362 -86.4842
RightUpLeg  -10.6213 -1.23871 4.93864
RightLeg  27.4758 5.58861 2.9155
RightFoot  -10.0787 -0.013008 -5.21686
RightToes  2.91037e-010 0 -3.6325e-017
Spine  16.5446 -0.0775805 11.3419
Spine1  -6.30897 2.0618 -7.98233
HEad  -68.7995 -55.7743 96.0181
LeftShoulder1  0.026045 3.94949 16.1555
LeftArm  -92.016 -57.6076 24.6743
LeftForeArm  -56.6911 -14.2248 6.25194
LeftHand  0.959215 1.06201 -29.1415
RightShoulder  -0.609297 3.38629 -19.8794
RightArm  -82.8102 41.4617 -17.1645
RightForeArm  -7.2586 22.0355 4.63651
RightHand  147.308 60.1552 159.153
LeftUpLeg  -21.1546 0.664895 8.31444
LeftLeg  16.1914 -15.8058 -4.76944
LeftFoot  10.9285 0.1643 -1.1718
LeftToes  -7.53974e-010 3.3384e-011 -1.25048e-011
279
root  66.4039 38.3062 4.14129 -77.2657 86.2668 -76.5045
RightUpLeg  -10.0157 0.116636 4.49155
RightLeg  24.1075 5.50917 2.46858
RightFoot  -8.99098 0.0137031 -3.53951
RightToes  2.91037e-010 0 -3.6325e-017
Spine  16.0429 0.045046 10.0878
Spine1  -6.90781 1.99973 -8.31418
HEad  -82.7695 -65.6534 111.463
LeftShoulder1  0.108113 5.14714 17.7795
LeftArm  -86.3504 -58.9864 21.5211
LeftForeArm  -99.5753 -11.544 5.23791
LeftHand  -2.75365 14.3562 -37.8192
RightShoulder  -0.617914 3.79681 -19.4571
RightArm  -76.4856 33.982 -12.3993
RightForeArm  -9.67025 32.1023 8.99699
RightHand  151.142 59.1042 161.854
LeftUpLeg  -21.0339 2.18059 7.44954
LeftLeg  14.1755 -16.1075 -4.00039
LeftFoot  11.9895 0.17858 -1.22355
LeftToes  -7.53974e-010 3.3384e-011 -1.25048e-011
280
root  66.958 38.5727 3.99731 -66.156 86.1372 -66.3498
RightUpLeg  -9.09489 0.948098 4.12405
RightLeg  21.806 5.65833 2.26436
RightFoot  -7.89189 0.054795 -3.60292
RightToes  2.91037e-010 0 -3.6325e-017
Spine  16.5967 0.0954659 8.50356
Spine1  -7.63803 1.771 -7.37858
HEad  -114.694 -74.8087 142.604
LeftShoulder1  0.00665138 3.30194 20.5411
LeftArm  -69.7126 -59.2623 19.6483
LeftForeArm  -177.999 -1.49273 3.49208
LeftHand  -12.6128 43.6316 -33.0303
RightShoulder  -0.481785 2.88206 -18.2777
RightArm  -64.6311 14.7105 4.21431
RightForeArm  -14.0673 58.5004 18.4729
RightHand  160.153 56.9197 167.952
LeftUpLeg  -20.152 2.69355 6.86976
LeftLeg  12.3875 -15.9059 -3.07535
LeftFoot  12.6359 -0.0570783 -0.10071
LeftToes  -7.53974e-010 3.3384e-011 -1.25048e-011
281
root  67.4715 38.8169 3.84029 -54.7409 85.4672 -56.519
RightUpLeg  -8.90682 1.39476 4.10231
RightLeg  19.4134 6.41551 2.1331
RightFoot  -6.73246 0.0789208 -3.09478
RightToes  2.91037e-010 0 -3.6325e-017
Spine  17.0492 0.523599 7.91029
Spine1  -8.50223 1.99376 -6.38626
HEad  -145.868 -74.1642 176.915
LeftShoulder1  -0.382736 -0.889786 18.6612
LeftArm  -67.6429 -53.3813 9.54178
LeftForeArm  -169.798 -9.9701 4.25811
LeftHand  -5.59312 36.857 -19.3268
RightShoulder  -0.183912 0.141616 -16.0092
RightArm  -66.4115 18.9492 0.843877
RightForeArm  -9.18887 59.668 21.8585
RightHand  156.168 57.5364 165.433
LeftUpLeg  -19.9093 4.16596 6.62354
LeftLeg  10.4252 -16.1384 -2.37534
LeftFoot  13.1613 -0.225523 0.665269
LeftToes  -7.53974e-010 3.3384e-011 -1.25048e-011
282
root  68.0497 39.0244 3.72437 -51.7208 85.2414 -55.3059
RightUpLeg  -8.63749 0.182123 4.02849
RightLeg  16.6986 8.02127 1.98584
RightFoot  -5.7258 0.0877846 -2.57636
RightToes  2.91037e-010 0 -3.6325e-017
Spine  16.5503 0.852521 7.86117
Spine1  -9.78364 2.16333 -6.15934
HEad  -171.848 -68.3981 -153.969
LeftShoulder1  -0.993896 -5.4202 22.6051
LeftArm  -71.1962 -47.9577 -6.35866
LeftForeArm  -159.552 -15.7559 5.47738
LeftHand  -1.68354 11.9402 14.9004
RightShoulder  -0.0228471 -2.84568 -12.8632
RightArm  -64.8942 15.2208 11.461
RightForeArm  22.194 75.8475 51.7274
RightHand  148.187 58.7343 160.14
LeftUpLeg  -20.1051 5.31449 6.34127
LeftLeg  8.89678 -16.6752 -2.19544
LeftFoot  12.6549 -0.0737088 -0.0180724
LeftToes  -7.53974e-010 3.3384e-011 -1.25048e-011
283
root  68.524 39.1749 3.58787 -44.3103 84.9816 -49.218
RightUpLeg  -8.31516 -1.89971 3.47741
RightLeg  14.5432 10.6724 2.55064
RightFoot  -4.92466 0.0953056 -2.29056
RightToes  2.91037e-010 0 -3.6325e-017
Spine  16.5594 0.964378 7.48761
Spine1  -9.8402 2.33155 -6.90636
HEad  179.421 -62.562 -138.84
LeftShoulder1  -1.15721 -8.87255 20.4017
LeftArm  -80.7696 -40.6304 -11.0008
LeftForeArm  -153.115 -25.2713 -2.10216
LeftHand  -26.2841 -37.3828 65.7064
RightShoulder  -0.111774 -4.64407 0.516125
RightArm  -56.5977 20.1033 17.2107
RightForeArm  106.57 75.0018 125.686
RightHand  134.245 61.0995 150.113
LeftUpLeg  -19.8784 5.64947 5.91191
LeftLeg  7.3331 -16.3247 -1.65587
LeftFoot  12.7401 -0.21729 0.653394
LeftToes  -7.53974e-010 3.3384e-011 -1.25048e-011
